<svg width="40" height="40" viewBox="0 0 40 40" fill="none" xmlns="http://www.w3.org/2000/svg">
<g id="Adobe XD Logomark">
<g id="Adobe XD">
<path id="Element" d="M31.4815 2.22137H8.51853C5.04118 2.22137 2.22223 5.04034 2.22223 8.51771V30.5919C2.22223 34.0693 5.04118 36.8883 8.51853 36.8883H31.4815C34.9588 36.8883 37.7778 34.0693 37.7778 30.5919V8.51771C37.7778 5.04034 34.9588 2.22137 31.4815 2.22137Z" fill="#470137"/>
<g id="Element_2">
<path d="M20.9107 11.3391L16.4742 18.6617L21.2207 26.4375C21.2512 26.4919 21.2597 26.5558 21.2446 26.6163C21.2285 26.6722 21.1731 26.637 21.0777 26.6527H17.6907C17.4521 26.6527 17.2852 26.6443 17.1898 26.4851C16.8715 25.865 16.5535 25.2488 16.2357 24.6366C15.9174 24.0246 15.5795 23.4005 15.222 22.7642C14.8643 22.1284 14.5104 21.4844 14.1606 20.8322H14.1368C13.8185 21.4684 13.4885 22.1044 13.1469 22.7404C12.8048 23.3766 12.4669 24.0086 12.1332 24.6366C11.7993 25.265 11.4574 25.8891 11.1076 26.509C11.0439 26.6521 10.9324 26.6669 10.7736 26.6669H7.50597C7.4426 26.6669 7.40679 26.692 7.39862 26.6282C7.38964 26.5701 7.40239 26.5107 7.43442 26.4613L12.0378 18.9002L7.55364 11.3153C7.50597 11.2519 7.49801 11.2002 7.52976 11.1602C7.54738 11.1399 7.56947 11.1239 7.59432 11.1135C7.61916 11.1032 7.64607 11.0988 7.67292 11.1006H11.036C11.1093 11.0965 11.1826 11.1088 11.2507 11.1364C11.3077 11.1687 11.3566 11.2136 11.3938 11.2676C11.68 11.9037 11.998 12.5398 12.3478 13.1757C12.6974 13.8119 13.0512 14.44 13.4093 15.06C13.767 15.6802 14.097 16.3083 14.3991 16.9443H14.423C14.7408 16.2925 15.0628 15.6565 15.389 15.0362C15.7147 14.416 16.0486 13.7919 16.3907 13.1638C16.7325 12.5358 17.0625 11.9117 17.3806 11.2914C17.3989 11.2326 17.4317 11.1792 17.476 11.1364C17.5349 11.1065 17.6011 11.0941 17.6668 11.1006H20.7914C20.8215 11.0932 20.8533 11.0962 20.8815 11.1092C20.9096 11.1222 20.9325 11.1444 20.9464 11.1722C20.9603 11.1999 20.9643 11.2316 20.9578 11.2619C20.9513 11.2923 20.9347 11.3195 20.9107 11.3391Z" fill="#FF61F6"/>
<path d="M27.7533 26.9617C26.6555 26.9784 25.5677 26.7502 24.5691 26.2938C23.6388 25.8632 22.8611 25.1604 22.339 24.2783C21.7982 23.3801 21.5278 22.2551 21.528 20.9032C21.519 19.8085 21.7987 18.7308 22.339 17.7786C22.8954 16.8088 23.7138 16.0152 24.7003 15.4888C25.7337 14.9164 26.9819 14.6302 28.445 14.6302C28.5244 14.6302 28.6277 14.6341 28.755 14.6421C28.8821 14.6503 29.0332 14.6622 29.2082 14.6779V9.97903C29.2082 9.86795 29.256 9.81206 29.3514 9.81206H32.3567C32.3761 9.80929 32.3959 9.81107 32.4146 9.81728C32.4332 9.82348 32.4501 9.83394 32.464 9.84782C32.4779 9.86171 32.4884 9.87863 32.4946 9.89726C32.5008 9.91589 32.5026 9.93571 32.4998 9.95515V24.0517C32.4998 24.3223 32.5117 24.6165 32.5356 24.9342C32.5594 25.2525 32.5793 25.5387 32.5953 25.7929C32.5982 25.8424 32.5861 25.8917 32.5605 25.9343C32.535 25.9768 32.4972 26.0107 32.4521 26.0314C31.6768 26.3548 30.8692 26.5946 30.0431 26.747C29.2877 26.8864 28.5214 26.9582 27.7533 26.9617ZM29.2082 24.004V17.4924C29.0793 17.4575 28.9477 17.4335 28.8147 17.4208C28.6522 17.4045 28.489 17.3965 28.3257 17.397C27.7469 17.3912 27.1749 17.522 26.6561 17.7786C26.1508 18.0298 25.7193 18.4079 25.4039 18.8758C25.0778 19.3529 24.9148 19.981 24.9149 20.7601C24.9033 21.2801 24.9882 21.7977 25.1653 22.2867C25.3095 22.6806 25.5374 23.0387 25.8332 23.3361C26.1165 23.6098 26.4594 23.8139 26.835 23.9325C27.2317 24.0609 27.6464 24.1253 28.0633 24.1233C28.2859 24.1233 28.4926 24.1153 28.6835 24.0994C28.8613 24.086 29.0371 24.054 29.2082 24.004Z" fill="#FF61F6"/>
</g>
</g>
</g>
</svg>
