<svg width="706" height="1202" viewBox="0 0 706 1202" fill="none" xmlns="http://www.w3.org/2000/svg">
<g opacity="0.6" filter="url(#filter0_f_144_1728)">
<path d="M318.447 580.926C326.473 524.04 355.142 465.224 417.782 410.153C483.969 351.929 560.791 323.245 627.912 317.206C656.172 314.686 682.709 316.166 706.008 321.169C811.016 343.741 850.025 437.576 683.831 555.986C678.417 559.839 672.819 563.692 666.957 567.624C502.148 677.694 446.972 758.668 432.268 811.298V811.334C431.631 813.556 431.108 815.705 430.66 817.781C426.89 834.235 427.152 847.651 429.018 858.066C429.764 862.218 430.773 865.925 431.855 869.109C431.894 869.224 431.931 869.334 431.967 869.444C434.206 875.89 436.818 880.376 438.535 882.86C438.761 883.194 438.872 883.341 438.872 883.341C439.583 884.345 440.067 884.936 440.294 885.197C439.883 884.826 439.472 884.418 438.988 883.973C410.054 856.587 298.14 724.907 318.447 580.926Z" fill="url(#paint0_linear_144_1728)"/>
<path opacity="0.04" d="M516.246 474.272C597.716 382.97 667.759 347.218 708.017 316C814.019 339.908 851.249 441.947 669.875 569.189C508.728 682.266 454.777 765.452 440.4 819.52C435.179 803.755 380.793 626.109 516.246 474.272Z" fill="white"/>
<path opacity="0.24" d="M418.639 410.153C485.388 351.929 562.863 323.245 630.554 317.206C659.054 314.686 685.823 316.166 709.314 321.169C667.749 351.521 595.543 386.358 511.514 475.232C371.807 622.994 427.901 795.915 433.285 811.298V811.334C432.644 813.556 432.117 815.705 431.665 817.781C427.863 834.24 428.127 847.651 430.009 858.066C430.762 862.218 431.778 865.925 432.871 869.114C432.908 869.224 432.945 869.334 432.982 869.444C435.24 875.895 437.879 880.376 439.611 882.86C439.834 883.194 439.945 883.341 439.945 883.341C440.662 884.345 441.151 884.936 441.379 885.197C440.965 884.826 440.551 884.418 440.062 883.974C399.327 845.691 195.694 604.574 418.639 410.153Z" fill="white"/>
<path opacity="0.14" d="M316 575.082C324.067 519.451 352.883 461.933 415.843 408.076C482.37 351.136 559.585 323.085 627.05 317.18C655.449 314.715 682.128 316.162 705.541 321.055C811.087 343.129 850.3 434.895 683.256 550.692C583.109 569.647 448.45 586.285 316 575.082Z" fill="white"/>
</g>
<defs>
<filter id="filter0_f_144_1728" x="0" y="0" width="1112.72" height="1201.2" filterUnits="userSpaceOnUse" color-interpolation-filters="sRGB">
<feFlood flood-opacity="0" result="BackgroundImageFix"/>
<feBlend mode="normal" in="SourceGraphic" in2="BackgroundImageFix" result="shape"/>
<feGaussianBlur stdDeviation="158" result="effect1_foregroundBlur_144_1728"/>
</filter>
<linearGradient id="paint0_linear_144_1728" x1="556.351" y1="220.245" x2="556.351" y2="592.789" gradientUnits="userSpaceOnUse">
<stop stop-color="#2E56E4"/>
<stop offset="0.0001" stop-color="#0038FF"/>
<stop offset="0.322917" stop-color="#033BFF"/>
<stop offset="1" stop-color="#002BC2"/>
</linearGradient>
</defs>
</svg>
