<svg width="41" height="40" viewBox="0 0 41 40" fill="none" xmlns="http://www.w3.org/2000/svg">
<g id="Figma Logomark">
<g id="Figma Logomark_2">
<path id="Element" d="M20.473 19.9999C20.473 16.7272 23.1761 14.074 26.5107 14.074C29.8451 14.074 32.5483 16.7272 32.5483 19.9999C32.5483 23.2727 29.8451 25.9258 26.5107 25.9258C23.1761 25.9258 20.473 23.2727 20.473 19.9999Z" fill="#1ABCFE"/>
<path id="Element_2" d="M8.39621 31.8519C8.39621 28.5791 11.0994 25.926 14.4339 25.926H20.4715V31.8519C20.4715 35.1247 17.7684 37.7778 14.4339 37.7778C11.0994 37.7778 8.39621 35.1247 8.39621 31.8519Z" fill="#0ACF83"/>
<path id="Element_3" d="M20.473 2.22223V14.074H26.5107C29.8452 14.074 32.5483 11.4209 32.5483 8.14814C32.5483 4.87535 29.8452 2.22223 26.5107 2.22223H20.473Z" fill="#FF7262"/>
<path id="Element_4" d="M8.39621 8.14814C8.39621 11.4209 11.0994 14.074 14.4339 14.074H20.4715V2.22223H14.4339C11.0994 2.22223 8.39621 4.87535 8.39621 8.14814Z" fill="#F24E1E"/>
<path id="Element_5" d="M8.39621 19.9999C8.39621 23.2727 11.0994 25.9258 14.4339 25.9258H20.4715V14.074H14.4339C11.0994 14.074 8.39621 16.7272 8.39621 19.9999Z" fill="#A259FF"/>
</g>
</g>
</svg>
