<svg width="32" height="32" viewBox="0 0 32 32" fill="none" xmlns="http://www.w3.org/2000/svg">
<g id="file-text 1">
<path id="Vector (Stroke)" fill-rule="evenodd" clip-rule="evenodd" d="M5.17157 2.50507C5.92172 1.75492 6.93913 1.3335 8 1.3335H18.6667C19.0203 1.3335 19.3594 1.47397 19.6095 1.72402L27.6095 9.72402C27.8595 9.97407 28 10.3132 28 10.6668V26.6668C28 27.7277 27.5786 28.7451 26.8284 29.4953C26.0783 30.2454 25.0609 30.6668 24 30.6668H8C5.79695 30.6668 4 28.8699 4 26.6668V5.3335C4 4.27263 4.42143 3.25521 5.17157 2.50507ZM8 4.00016C7.64638 4.00016 7.30724 4.14064 7.05719 4.39069C6.80714 4.64074 6.66667 4.97987 6.66667 5.3335V26.6668C6.66667 27.3971 7.26971 28.0002 8 28.0002H24C24.3536 28.0002 24.6928 27.8597 24.9428 27.6096C25.1929 27.3596 25.3333 27.0205 25.3333 26.6668V11.2191L18.1144 4.00016H8Z" fill="#033BFF"/>
<path id="Vector (Stroke)_2" fill-rule="evenodd" clip-rule="evenodd" d="M18.6667 2.6665C19.4031 2.6665 20 3.26346 20 3.99984V9.33317H25.3333C26.0697 9.33317 26.6667 9.93012 26.6667 10.6665C26.6667 11.4029 26.0697 11.9998 25.3333 11.9998H18.6667C17.9303 11.9998 17.3333 11.4029 17.3333 10.6665V3.99984C17.3333 3.26346 17.9303 2.6665 18.6667 2.6665ZM9.33334 11.9998C9.33334 11.2635 9.9303 10.6665 10.6667 10.6665H13.3333C14.0697 10.6665 14.6667 11.2635 14.6667 11.9998C14.6667 12.7362 14.0697 13.3332 13.3333 13.3332H10.6667C9.9303 13.3332 9.33334 12.7362 9.33334 11.9998ZM9.33334 17.3332C9.33334 16.5968 9.9303 15.9998 10.6667 15.9998H21.3333C22.0697 15.9998 22.6667 16.5968 22.6667 17.3332C22.6667 18.0696 22.0697 18.6665 21.3333 18.6665H10.6667C9.9303 18.6665 9.33334 18.0696 9.33334 17.3332ZM9.33334 22.6665C9.33334 21.9301 9.9303 21.3332 10.6667 21.3332H21.3333C22.0697 21.3332 22.6667 21.9301 22.6667 22.6665C22.6667 23.4029 22.0697 23.9998 21.3333 23.9998H10.6667C9.9303 23.9998 9.33334 23.4029 9.33334 22.6665Z" fill="#033BFF"/>
</g>
</svg>
