<svg width="223" height="48" viewBox="0 0 223 48" fill="none" xmlns="http://www.w3.org/2000/svg">
<path d="M44.2857 22.2134C43.4566 22.2134 42.7067 22.071 42.0365 21.7861C41.3777 21.5013 40.8551 21.0913 40.469 20.5558C40.0828 20.0206 39.884 19.3883 39.8726 18.6593H42.4285C42.4626 19.1491 42.6329 19.5364 42.9396 19.8212C43.2578 20.1061 43.6895 20.2485 44.2348 20.2485C44.7912 20.2485 45.2285 20.1173 45.5467 19.8554C45.8647 19.582 46.0238 19.229 46.0238 18.7961C46.0238 18.4429 45.9158 18.1524 45.7 17.9247C45.4841 17.6968 45.2115 17.5204 44.8821 17.395C44.5642 17.2582 44.121 17.1102 43.5531 16.9507C42.7805 16.723 42.1503 16.5009 41.6618 16.2844C41.1845 16.0565 40.7701 15.7206 40.4178 15.2762C40.077 14.8206 39.9067 14.2169 39.9067 13.4652C39.9067 12.7589 40.0828 12.1438 40.4349 11.6197C40.7869 11.0957 41.2812 10.697 41.9173 10.4236C42.5535 10.139 43.2805 9.99658 44.0983 9.99658C45.3253 9.99658 46.3193 10.2983 47.0801 10.9022C47.8527 11.4944 48.2788 12.326 48.3582 13.3968H45.7341C45.7114 12.9866 45.5353 12.6507 45.2059 12.3886C44.8879 12.1152 44.4618 11.9786 43.928 11.9786C43.4622 11.9786 43.0873 12.0981 42.8034 12.3375C42.5308 12.5767 42.3944 12.9241 42.3944 13.3797C42.3944 13.6985 42.4967 13.9663 42.7011 14.1827C42.917 14.3877 43.1781 14.5587 43.4849 14.6953C43.8031 14.8206 44.246 14.9686 44.8141 15.1396C45.5864 15.3673 46.217 15.5953 46.7054 15.823C47.1939 16.0509 47.6142 16.3927 47.9662 16.8483C48.3185 17.3039 48.4944 17.902 48.4944 18.6422C48.4944 19.2801 48.3297 19.8725 48.0003 20.4193C47.6709 20.966 47.1881 21.4045 46.5519 21.7348C45.9158 22.0539 45.1606 22.2134 44.2857 22.2134Z" fill="white"/>
<path d="M53.4593 10.1675V22.0938H51.0739V10.1675H53.4593Z" fill="white"/>
<path d="M63.0411 22.0938L58.713 16.78V22.0938H56.3274V10.1675H58.713V15.5155L63.0411 10.1675H65.9206L61.0134 16.0794L66.057 22.0938H63.0411Z" fill="white"/>
<path d="M72.2948 10.1675C73.5444 10.1675 74.6407 10.4125 75.5836 10.9023C76.5377 11.3922 77.2705 12.0926 77.7816 13.0038C78.3042 13.9038 78.5654 14.9517 78.5654 16.1478C78.5654 17.3439 78.3042 18.3917 77.7816 19.2917C77.2705 20.1802 76.5377 20.8694 75.5836 21.3592C74.6407 21.849 73.5444 22.0938 72.2948 22.0938H68.1373V10.1675H72.2948ZM72.2098 20.0605C73.4594 20.0605 74.4249 19.7187 75.1063 19.0354C75.788 18.3519 76.1288 17.3893 76.1288 16.1478C76.1288 14.9062 75.788 13.938 75.1063 13.243C74.4249 12.537 73.4594 12.1837 72.2098 12.1837H70.5229V20.0605H72.2098Z" fill="white"/>
<path d="M83.2478 12.0982V15.0885H87.2521V16.985H83.2478V20.146H87.7632V22.0938H80.8624V10.1504H87.7632V12.0982H83.2478Z" fill="white"/>
<path d="M96.5765 22.0938L93.9524 17.4462H92.8278V22.0938H90.4424V10.1675H94.9067C95.8269 10.1675 96.6106 10.3326 97.2582 10.6632C97.9055 10.982 98.3884 11.4205 98.7064 11.9787C99.036 12.5255 99.2007 13.1406 99.2007 13.824C99.2007 14.6101 98.9734 15.322 98.519 15.9599C98.0646 16.5863 97.3888 17.0192 96.4913 17.2584L99.3369 22.0938H96.5765ZM92.8278 15.6523H94.8214C95.469 15.6523 95.9518 15.4984 96.2698 15.1908C96.588 14.872 96.7468 14.4335 96.7468 13.8753C96.7468 13.3285 96.588 12.9071 96.2698 12.611C95.9518 12.3034 95.469 12.1495 94.8214 12.1495H92.8278V15.6523Z" fill="white"/>
<path d="M105.861 16.1134C105.861 14.9403 106.123 13.8922 106.645 12.9695C107.179 12.0355 107.9 11.3121 108.809 10.7996C109.729 10.2756 110.757 10.0137 111.893 10.0137C113.223 10.0137 114.387 10.3554 115.386 11.0388C116.386 11.7223 117.085 12.6678 117.482 13.8751H114.739C114.466 13.3056 114.08 12.8784 113.58 12.5937C113.092 12.3089 112.524 12.1665 111.876 12.1665C111.183 12.1665 110.564 12.3316 110.019 12.6619C109.485 12.981 109.065 13.4366 108.758 14.029C108.463 14.6212 108.315 15.316 108.315 16.1134C108.315 16.8993 108.463 17.5944 108.758 18.198C109.065 18.7902 109.485 19.2517 110.019 19.582C110.564 19.9008 111.183 20.0604 111.876 20.0604C112.524 20.0604 113.092 19.9179 113.58 19.6333C114.08 19.337 114.466 18.9043 114.739 18.3346H117.482C117.085 19.5534 116.386 20.5047 115.386 21.1881C114.398 21.8601 113.234 22.1963 111.893 22.1963C110.757 22.1963 109.729 21.94 108.809 21.4272C107.9 20.9034 107.179 20.1801 106.645 19.2573C106.123 18.3346 105.861 17.2868 105.861 16.1134Z" fill="white"/>
<path d="M125.552 22.2134C124.439 22.2134 123.416 21.9513 122.485 21.4273C121.553 20.9035 120.815 20.1801 120.27 19.2574C119.724 18.3234 119.452 17.2697 119.452 16.0963C119.452 14.9344 119.724 13.8922 120.27 12.9695C120.815 12.0355 121.553 11.3065 122.485 10.7825C123.416 10.2585 124.439 9.99658 125.552 9.99658C126.676 9.99658 127.699 10.2585 128.619 10.7825C129.55 11.3065 130.283 12.0355 130.817 12.9695C131.362 13.8922 131.635 14.9344 131.635 16.0963C131.635 17.2697 131.362 18.3234 130.817 19.2574C130.283 20.1801 129.55 20.9035 128.619 21.4273C127.687 21.9513 126.665 22.2134 125.552 22.2134ZM125.552 20.0775C126.267 20.0775 126.898 19.918 127.443 19.5991C127.988 19.2688 128.414 18.8017 128.721 18.1981C129.028 17.5944 129.181 16.8937 129.181 16.0963C129.181 15.2989 129.028 14.6041 128.721 14.0119C128.414 13.408 127.988 12.9468 127.443 12.628C126.898 12.3089 126.267 12.1494 125.552 12.1494C124.836 12.1494 124.2 12.3089 123.643 12.628C123.098 12.9468 122.672 13.408 122.365 14.0119C122.059 14.6041 121.905 15.2989 121.905 16.0963C121.905 16.8937 122.059 17.5944 122.365 18.1981C122.672 18.8017 123.098 19.2688 123.643 19.5991C124.2 19.918 124.836 20.0775 125.552 20.0775Z" fill="white"/>
<path d="M144.093 22.0938H141.708L136.306 13.9095V22.0938H133.921V10.1504H136.306L141.708 18.3519V10.1504H144.093V22.0938Z" fill="white"/>
<path d="M151.068 22.2134C150.239 22.2134 149.489 22.071 148.819 21.7861C148.16 21.5013 147.638 21.0913 147.252 20.5558C146.865 20.0206 146.667 19.3883 146.655 18.6593H149.211C149.245 19.1491 149.416 19.5364 149.722 19.8212C150.04 20.1061 150.472 20.2485 151.017 20.2485C151.574 20.2485 152.011 20.1173 152.33 19.8554C152.647 19.582 152.807 19.229 152.807 18.7961C152.807 18.4429 152.699 18.1524 152.483 17.9247C152.267 17.6968 151.994 17.5204 151.665 17.395C151.347 17.2582 150.904 17.1102 150.336 16.9507C149.563 16.723 148.933 16.5009 148.444 16.2844C147.967 16.0565 147.553 15.7206 147.201 15.2762C146.86 14.8206 146.689 14.2169 146.689 13.4652C146.689 12.7589 146.865 12.1438 147.218 11.6197C147.57 11.0957 148.064 10.697 148.7 10.4236C149.336 10.139 150.063 9.99658 150.881 9.99658C152.108 9.99658 153.102 10.2983 153.863 10.9022C154.635 11.4944 155.061 12.326 155.141 13.3968H152.517C152.494 12.9866 152.318 12.6507 151.989 12.3886C151.67 12.1152 151.245 11.9786 150.711 11.9786C150.245 11.9786 149.87 12.0981 149.586 12.3375C149.313 12.5767 149.177 12.9241 149.177 13.3797C149.177 13.6985 149.279 13.9663 149.484 14.1827C149.7 14.3877 149.961 14.5587 150.268 14.6953C150.586 14.8206 151.029 14.9686 151.597 15.1396C152.369 15.3673 152.999 15.5953 153.488 15.823C153.976 16.0509 154.397 16.3927 154.749 16.8483C155.101 17.3039 155.277 17.902 155.277 18.6422C155.277 19.2801 155.113 19.8725 154.783 20.4193C154.454 20.966 153.971 21.4045 153.335 21.7348C152.699 22.0539 151.943 22.2134 151.068 22.2134Z" fill="white"/>
<path d="M160.208 10.1675V17.5488C160.208 18.3577 160.418 18.9785 160.839 19.4114C161.259 19.8328 161.85 20.0434 162.61 20.0434C163.383 20.0434 163.979 19.8328 164.4 19.4114C164.82 18.9785 165.03 18.3577 165.03 17.5488V10.1675H167.433V17.5317C167.433 18.5456 167.211 19.4055 166.768 20.1118C166.337 20.8066 165.752 21.3306 165.013 21.6839C164.286 22.0369 163.474 22.2135 162.577 22.2135C161.69 22.2135 160.884 22.0369 160.157 21.6839C159.441 21.3306 158.873 20.8066 158.453 20.1118C158.033 19.4055 157.822 18.5456 157.822 17.5317V10.1675H160.208Z" fill="white"/>
<path d="M172.634 20.1973H176.553V22.0938H170.249V10.1675H172.634V20.1973Z" fill="white"/>
<path d="M186.675 10.1675V12.0982H183.505V22.0938H181.12V12.0982H177.95V10.1675H186.675Z" fill="white"/>
<path d="M191.312 10.1675V22.0938H188.926V10.1675H191.312Z" fill="white"/>
<path d="M204.352 22.0938H201.967L196.565 13.9095V22.0938H194.18V10.1504H196.565L201.967 18.3519V10.1504H204.352V22.0938Z" fill="white"/>
<path d="M215.502 13.7556C215.231 13.2543 214.854 12.8727 214.378 12.6108C213.9 12.3487 213.344 12.2178 212.709 12.2178C212.004 12.2178 211.379 12.3773 210.833 12.6961C210.288 13.0152 209.862 13.4708 209.555 14.063C209.249 14.6554 209.095 15.339 209.095 16.1134C209.095 16.9108 209.249 17.6056 209.555 18.198C209.873 18.7902 210.311 19.2459 210.868 19.5649C211.424 19.884 212.071 20.0433 212.81 20.0433C213.718 20.0433 214.463 19.8041 215.042 19.3257C215.621 18.8359 216.002 18.1582 216.184 17.2924H212.094V15.4643H218.536V17.5487C218.376 18.3803 218.035 19.1491 217.513 19.8554C216.99 20.5617 216.314 21.1311 215.484 21.564C214.667 21.9855 213.747 22.1963 212.724 22.1963C211.578 22.1963 210.538 21.94 209.606 21.4272C208.686 20.9034 207.959 20.1801 207.425 19.2573C206.903 18.3346 206.642 17.2868 206.642 16.1134C206.642 14.9403 206.903 13.8922 207.425 12.9695C207.959 12.0355 208.686 11.3121 209.606 10.7996C210.538 10.2756 211.571 10.0137 212.709 10.0137C214.048 10.0137 215.213 10.344 216.2 11.0046C217.189 11.6539 217.872 12.5708 218.246 13.7556H215.502Z" fill="white"/>
<path d="M47.6528 37.1687L46.3101 35.7942C45.8297 36.3232 45.3161 36.7153 44.7697 36.9703C44.2234 37.216 43.6061 37.3388 42.9184 37.3388C42.2589 37.3388 41.6746 37.216 41.1659 36.9703C40.657 36.7153 40.2614 36.361 39.9787 35.9074C39.696 35.454 39.5549 34.9295 39.5549 34.3344C39.5549 33.6353 39.7526 33.0258 40.1484 32.5063C40.5439 31.9867 41.1235 31.5804 41.8866 31.2874C41.5568 30.9191 41.3167 30.5789 41.1659 30.2671C41.0151 29.946 40.9398 29.6011 40.9398 29.2327C40.9398 28.5996 41.1659 28.0895 41.6181 27.7021C42.0704 27.3054 42.6733 27.1069 43.427 27.1069C44.1338 27.1069 44.7085 27.3101 45.1514 27.7162C45.5941 28.1226 45.8014 28.6516 45.7732 29.3034H44.7839C44.7933 28.8784 44.6613 28.5429 44.388 28.2974C44.1244 28.0517 43.7898 27.9289 43.3846 27.9289C42.9513 27.9289 42.5979 28.0517 42.3249 28.2974C42.061 28.5334 41.9291 28.8406 41.9291 29.2186C41.9291 29.5207 42.0092 29.8137 42.1694 30.0972C42.339 30.3805 42.6026 30.7159 42.9608 31.1034L46.2112 34.4053C46.3431 34.2257 46.5221 33.9424 46.7483 33.555L47.6528 32.0387H48.7128L47.6387 33.8952C47.3842 34.3391 47.13 34.736 46.8755 35.0854L48.939 37.1687H47.6528ZM42.9184 36.4744C43.4741 36.4744 43.9689 36.3657 44.4022 36.1483C44.8451 35.931 45.2643 35.591 45.6601 35.128L42.5084 31.9253C41.1989 32.407 40.5439 33.2006 40.5439 34.306C40.5439 34.7218 40.6429 35.0949 40.8408 35.4256C41.0481 35.7469 41.3308 36.0019 41.6887 36.1909C42.0469 36.3799 42.4566 36.4744 42.9184 36.4744Z" fill="white"/>
<path d="M58.8622 37.2681C58.2122 37.2681 57.6376 37.1547 57.1381 36.9279C56.6483 36.7014 56.2619 36.3848 55.9792 35.9784C55.6967 35.5723 55.5459 35.1187 55.527 34.6181H56.5729C56.62 35.0998 56.832 35.5251 57.2088 35.8934C57.5857 36.2525 58.1368 36.432 58.8622 36.432C59.5313 36.432 60.0589 36.2619 60.4453 35.9217C60.8408 35.5723 61.0387 35.1329 61.0387 34.6039C61.0387 34.1787 60.9304 33.8387 60.7136 33.5835C60.4971 33.3189 60.2285 33.1252 59.9081 33.0026C59.5879 32.8703 59.145 32.7285 58.5797 32.5773C57.9201 32.3978 57.3973 32.223 57.0109 32.0531C56.6247 31.883 56.2949 31.6184 56.0216 31.2593C55.7485 30.9004 55.6119 30.4137 55.6119 29.7997C55.6119 29.2894 55.7438 28.836 56.0074 28.4391C56.2713 28.033 56.6436 27.7164 57.124 27.4896C57.6046 27.2631 58.1557 27.1497 58.7774 27.1497C59.6913 27.1497 60.4264 27.3762 60.9822 27.8298C61.5476 28.274 61.8725 28.8502 61.9574 29.5587H60.8832C60.8173 29.1526 60.596 28.7935 60.2191 28.4817C59.8421 28.1606 59.3334 27.9999 58.6928 27.9999C58.0991 27.9999 57.6046 28.1606 57.2088 28.4817C56.8132 28.7935 56.6153 29.2235 56.6153 29.7714C56.6153 30.1872 56.7237 30.5224 56.9402 30.7776C57.1569 31.0327 57.4255 31.2262 57.7459 31.3585C58.0756 31.4908 58.5185 31.6326 59.0743 31.7838C59.7149 31.9633 60.2332 32.1426 60.6288 32.3222C61.0246 32.4923 61.3592 32.7569 61.6322 33.1158C61.9055 33.4749 62.0422 33.9568 62.0422 34.5614C62.0422 35.0242 61.9197 35.4636 61.6746 35.8792C61.4298 36.295 61.067 36.6305 60.5866 36.8854C60.106 37.1406 59.5313 37.2681 58.8622 37.2681Z" fill="white"/>
<path d="M69.2394 37.2681C68.3255 37.2681 67.4964 37.0555 66.7522 36.6305C66.0079 36.1958 65.4189 35.5959 64.9856 34.8307C64.5615 34.0558 64.3495 33.1819 64.3495 32.2088C64.3495 31.2357 64.5615 30.3665 64.9856 29.6013C65.4189 28.8266 66.0079 28.2267 66.7522 27.8015C67.4964 27.3668 68.3255 27.1497 69.2394 27.1497C70.1628 27.1497 70.9966 27.3668 71.7408 27.8015C72.4853 28.2267 73.0694 28.8266 73.4935 29.6013C73.9173 30.3665 74.1294 31.2357 74.1294 32.2088C74.1294 33.1819 73.9173 34.0558 73.4935 34.8307C73.0694 35.5959 72.4853 36.1958 71.7408 36.6305C70.9966 37.0555 70.1628 37.2681 69.2394 37.2681ZM69.2394 36.4037C69.9743 36.4037 70.634 36.2336 71.218 35.8934C71.8021 35.5534 72.2639 35.0667 72.6031 34.4338C72.9422 33.7914 73.1118 33.0496 73.1118 32.2088C73.1118 31.368 72.9422 30.6311 72.6031 29.9982C72.2639 29.365 71.8021 28.8786 71.218 28.5384C70.634 28.1984 69.9743 28.0283 69.2394 28.0283C68.5046 28.0283 67.8451 28.1984 67.2608 28.5384C66.6768 28.8786 66.215 29.365 65.876 29.9982C65.5367 30.6311 65.3671 31.368 65.3671 32.2088C65.3671 33.0496 65.5367 33.7914 65.876 34.4338C66.215 35.0667 66.6768 35.5534 67.2608 35.8934C67.8451 36.2336 68.5046 36.4037 69.2394 36.4037Z" fill="white"/>
<path d="M82.1297 27.2629V28.0849H77.7767V31.7836H81.4514V32.6056H77.7767V37.1688H76.7874V27.2629H82.1297Z" fill="white"/>
<path d="M90.3854 27.2629V28.0849H87.6436V37.1688H86.6543V28.0849H83.8985V27.2629H90.3854Z" fill="white"/>
<path d="M104.78 27.2629L101.982 37.1688H100.879L98.392 28.7225L95.8482 37.1688L94.7741 37.183L92.0323 27.2629H93.0923L95.3536 35.95L97.8833 27.2629H98.9857L101.445 35.95L103.72 27.2629H104.78Z" fill="white"/>
<path d="M112.865 34.8165H108.371L107.509 37.1689H106.463L110.067 27.3904H111.183L114.773 37.1689H113.727L112.865 34.8165ZM112.568 33.9944L110.618 28.6376L108.668 33.9944H112.568Z" fill="white"/>
<path d="M122.466 37.1688L120.021 33.0306H118.198V37.1688H117.209V27.2629H120.177C121.279 27.2629 122.113 27.5273 122.678 28.0565C123.253 28.5855 123.54 29.2798 123.54 30.1398C123.54 30.8578 123.333 31.4718 122.918 31.9821C122.513 32.4827 121.91 32.8087 121.109 32.9599L123.653 37.1688H122.466ZM118.198 32.2228H120.191C120.963 32.2228 121.543 32.0341 121.929 31.6561C122.325 31.2781 122.522 30.7727 122.522 30.1398C122.522 29.4877 122.334 28.9871 121.957 28.6375C121.58 28.2786 120.987 28.099 120.177 28.099H118.198V32.2228Z" fill="white"/>
<path d="M127.341 28.0707V31.7695H131.086V32.5914H127.341V36.3469H131.51V37.1688H126.351V27.2488H131.51V28.0707H127.341Z" fill="white"/>
<path d="M142.029 37.2681C141.379 37.2681 140.804 37.1547 140.305 36.9279C139.815 36.7014 139.429 36.3848 139.146 35.9784C138.863 35.5723 138.713 35.1187 138.694 34.6181H139.74C139.787 35.0998 139.999 35.5251 140.376 35.8934C140.753 36.2525 141.304 36.432 142.029 36.432C142.698 36.432 143.226 36.2619 143.612 35.9217C144.008 35.5723 144.206 35.1329 144.206 34.6039C144.206 34.1787 144.097 33.8387 143.881 33.5835C143.664 33.3189 143.395 33.1252 143.075 33.0026C142.755 32.8703 142.312 32.7285 141.747 32.5773C141.087 32.3978 140.564 32.223 140.178 32.0531C139.792 31.883 139.462 31.6184 139.189 31.2593C138.915 30.9004 138.779 30.4137 138.779 29.7997C138.779 29.2894 138.911 28.836 139.174 28.4391C139.438 28.033 139.81 27.7164 140.291 27.4896C140.771 27.2631 141.323 27.1497 141.944 27.1497C142.858 27.1497 143.593 27.3762 144.149 27.8298C144.714 28.274 145.04 28.8502 145.124 29.5587H144.05C143.984 29.1526 143.763 28.7935 143.386 28.4817C143.009 28.1606 142.5 27.9999 141.86 27.9999C141.266 27.9999 140.771 28.1606 140.376 28.4817C139.98 28.7935 139.782 29.2235 139.782 29.7714C139.782 30.1872 139.89 30.5224 140.107 30.7776C140.324 31.0327 140.592 31.2262 140.913 31.3585C141.243 31.4908 141.685 31.6326 142.241 31.7838C142.882 31.9633 143.4 32.1426 143.796 32.3222C144.191 32.4923 144.526 32.7569 144.799 33.1158C145.073 33.4749 145.209 33.9568 145.209 34.5614C145.209 35.0242 145.087 35.4636 144.842 35.8792C144.597 36.295 144.234 36.6305 143.753 36.8854C143.273 37.1406 142.698 37.2681 142.029 37.2681Z" fill="white"/>
<path d="M152.406 37.2681C151.492 37.2681 150.663 37.0555 149.919 36.6305C149.175 36.1958 148.586 35.5959 148.152 34.8307C147.728 34.0558 147.517 33.1819 147.517 32.2088C147.517 31.2357 147.728 30.3665 148.152 29.6013C148.586 28.8266 149.175 28.2267 149.919 27.8015C150.663 27.3668 151.492 27.1497 152.406 27.1497C153.33 27.1497 154.164 27.3668 154.908 27.8015C155.652 28.2267 156.236 28.8266 156.66 29.6013C157.084 30.3665 157.296 31.2357 157.296 32.2088C157.296 33.1819 157.084 34.0558 156.66 34.8307C156.236 35.5959 155.652 36.1958 154.908 36.6305C154.164 37.0555 153.33 37.2681 152.406 37.2681ZM152.406 36.4037C153.141 36.4037 153.801 36.2336 154.385 35.8934C154.969 35.5534 155.431 35.0667 155.77 34.4338C156.109 33.7914 156.279 33.0496 156.279 32.2088C156.279 31.368 156.109 30.6311 155.77 29.9982C155.431 29.365 154.969 28.8786 154.385 28.5384C153.801 28.1984 153.141 28.0283 152.406 28.0283C151.671 28.0283 151.012 28.1984 150.428 28.5384C149.844 28.8786 149.382 29.365 149.043 29.9982C148.704 30.6311 148.534 31.368 148.534 32.2088C148.534 33.0496 148.704 33.7914 149.043 34.4338C149.382 35.0667 149.844 35.5534 150.428 35.8934C151.012 36.2336 151.671 36.4037 152.406 36.4037Z" fill="white"/>
<path d="M160.944 36.361H164.491V37.1688H159.954V27.2629H160.944V36.361Z" fill="white"/>
<path d="M167.698 27.2629V33.4984C167.698 34.4809 167.929 35.2084 168.39 35.6809C168.861 36.1531 169.502 36.3894 170.312 36.3894C171.123 36.3894 171.754 36.1579 172.206 35.695C172.668 35.2225 172.899 34.4904 172.899 33.4984V27.2629H173.888V33.4842C173.888 34.7408 173.553 35.6856 172.884 36.3185C172.225 36.9514 171.363 37.268 170.298 37.268C169.234 37.268 168.367 36.9514 167.698 36.3185C167.038 35.6856 166.708 34.7408 166.708 33.4842V27.2629H167.698Z" fill="white"/>
<path d="M182.723 27.2629V28.0849H179.981V37.1688H178.992V28.0849H176.236V27.2629H182.723Z" fill="white"/>
<path d="M186.122 27.2629V37.1688H185.133V27.2629H186.122Z" fill="white"/>
<path d="M193.648 37.2681C192.734 37.2681 191.905 37.0555 191.161 36.6305C190.416 36.1958 189.827 35.5959 189.394 34.8307C188.97 34.0558 188.758 33.1819 188.758 32.2088C188.758 31.2357 188.97 30.3665 189.394 29.6013C189.827 28.8266 190.416 28.2267 191.161 27.8015C191.905 27.3668 192.734 27.1497 193.648 27.1497C194.571 27.1497 195.405 27.3668 196.149 27.8015C196.894 28.2267 197.478 28.8266 197.902 29.6013C198.326 30.3665 198.538 31.2357 198.538 32.2088C198.538 33.1819 198.326 34.0558 197.902 34.8307C197.478 35.5959 196.894 36.1958 196.149 36.6305C195.405 37.0555 194.571 37.2681 193.648 37.2681ZM193.648 36.4037C194.383 36.4037 195.042 36.2336 195.626 35.8934C196.21 35.5534 196.672 35.0667 197.012 34.4338C197.351 33.7914 197.52 33.0496 197.52 32.2088C197.52 31.368 197.351 30.6311 197.012 29.9982C196.672 29.365 196.21 28.8786 195.626 28.5384C195.042 28.1984 194.383 28.0283 193.648 28.0283C192.913 28.0283 192.254 28.1984 191.669 28.5384C191.085 28.8786 190.623 29.365 190.284 29.9982C189.945 30.6311 189.775 31.368 189.775 32.2088C189.775 33.0496 189.945 33.7914 190.284 34.4338C190.623 35.0667 191.085 35.5534 191.669 35.8934C192.254 36.2336 192.913 36.4037 193.648 36.4037Z" fill="white"/>
<path d="M208.644 37.1688H207.655L202.185 28.8359V37.1688H201.196V27.2629H202.185L207.655 35.5816V27.2629H208.644V37.1688Z" fill="white"/>
<path d="M214.728 37.2681C214.08 37.2681 213.503 37.1547 213.005 36.9279C212.513 36.7014 212.127 36.3848 211.845 35.9784C211.562 35.5723 211.412 35.1187 211.393 34.6181H212.439C212.486 35.0998 212.697 35.5251 213.074 35.8934C213.451 36.2525 214.003 36.432 214.728 36.432C215.397 36.432 215.926 36.2619 216.312 35.9217C216.707 35.5723 216.904 35.1329 216.904 34.6039C216.904 34.1787 216.797 33.8387 216.579 33.5835C216.364 33.3189 216.094 33.1252 215.774 33.0026C215.455 32.8703 215.011 32.7285 214.445 32.5773C213.786 32.3978 213.263 32.223 212.877 32.0531C212.491 31.883 212.161 31.6184 211.887 31.2593C211.614 30.9004 211.478 30.4137 211.478 29.7997C211.478 29.2894 211.609 28.836 211.874 28.4391C212.139 28.033 212.509 27.7164 212.991 27.4896C213.471 27.2631 214.021 27.1497 214.643 27.1497C215.558 27.1497 216.292 27.3762 216.848 27.8298C217.414 28.274 217.739 28.8502 217.824 29.5587H216.75C216.685 29.1526 216.462 28.7935 216.086 28.4817C215.709 28.1606 215.199 27.9999 214.56 27.9999C213.965 27.9999 213.471 28.1606 213.074 28.4817C212.679 28.7935 212.482 29.2235 212.482 29.7714C212.482 30.1872 212.59 30.5224 212.807 30.7776C213.023 31.0327 213.292 31.2262 213.613 31.3585C213.943 31.4908 214.385 31.6326 214.941 31.7838C215.581 31.9633 216.099 32.1426 216.496 32.3222C216.891 32.4923 217.225 32.7569 217.499 33.1158C217.773 33.4749 217.907 33.9568 217.907 34.5614C217.907 35.0242 217.786 35.4636 217.542 35.8792C217.295 36.295 216.934 36.6305 216.454 36.8854C215.973 37.1406 215.397 37.2681 214.728 37.2681Z" fill="white"/>
<path d="M26.6613 32.2135C26.2847 34.9099 24.9394 37.6979 21.9997 40.3081C18.8936 43.068 15.2883 44.4276 12.1384 44.7141C10.8123 44.8335 9.5667 44.7631 8.47353 44.526C3.54558 43.4561 1.71487 39.0083 9.51415 33.3957C9.76824 33.213 10.031 33.0303 10.3061 32.844C18.0405 27.6267 20.6297 23.7884 21.3199 21.2938V21.292C21.3497 21.1867 21.3742 21.0848 21.3952 20.9865C21.5723 20.2064 21.5599 19.5705 21.4724 19.0769C21.4372 18.8802 21.3901 18.7045 21.3391 18.5533C21.3374 18.5481 21.3358 18.543 21.334 18.5376C21.2288 18.232 21.1062 18.0194 21.0257 17.9017C21.0151 17.886 21.0098 17.8788 21.0098 17.8788C20.9766 17.8315 20.9539 17.8034 20.9433 17.791C20.9626 17.8086 20.9817 17.8279 21.0046 17.8491C22.3623 19.1471 27.6144 25.3886 26.6613 32.2135Z" fill="url(#paint0_linear_157_1957)"/>
<path opacity="0.04" d="M17.6776 37.2233C13.7675 41.4359 10.4056 43.0854 8.47337 44.5258C3.38599 43.4227 1.59908 38.7148 10.304 32.8439C18.0386 27.6266 20.6278 23.7883 21.318 21.2937C21.5686 22.0227 24.1788 30.2195 17.6776 37.2233Z" fill="white"/>
<path opacity="0.24" d="M21.9994 40.3081C18.8936 43.068 15.2882 44.4276 12.1383 44.7141C10.8122 44.8335 9.56655 44.7631 8.47339 44.526C10.4074 43.0873 13.7676 41.436 17.6776 37.2234C24.1789 30.2196 21.5686 22.0228 21.318 21.2938V21.292C21.3478 21.1867 21.3723 21.0848 21.3934 20.9865C21.5702 20.2064 21.5581 19.5705 21.4704 19.0769C21.4354 18.8802 21.388 18.7045 21.3373 18.5533C21.3355 18.5481 21.3337 18.543 21.3321 18.5376C21.2269 18.232 21.1044 18.0194 21.0236 17.9017C21.0133 17.886 21.0079 17.8788 21.0079 17.8788C20.9747 17.8315 20.9518 17.8034 20.9413 17.791C20.9606 17.8086 20.9799 17.8279 21.0027 17.8491C22.8981 19.6619 32.374 31.0926 21.9994 40.3081Z" fill="white"/>
<path opacity="0.14" d="M26.6613 32.2131C26.2847 34.9097 24.9394 37.6975 21.9997 40.3079C18.8936 43.0678 15.2882 44.4275 12.1384 44.7139C10.8123 44.8334 9.5667 44.7629 8.47353 44.5258C3.54558 43.4559 1.71487 39.0081 9.51415 33.3955C14.1899 32.4768 20.4773 31.6722 26.6613 32.2131Z" fill="white"/>
<path d="M4.11484 15.5265C4.49149 12.8301 5.83693 10.0421 8.77653 7.43165C11.8825 4.67202 15.4879 3.31235 18.6378 3.02592C19.9639 2.90645 21.2094 2.97665 22.3026 3.2138C27.2307 4.28367 29.0614 8.7317 21.2621 14.3443C21.0079 14.527 20.7452 14.7097 20.4703 14.8958C12.7356 20.1131 10.1465 23.9516 9.45627 26.446V26.4477C9.42647 26.5533 9.40195 26.6552 9.38092 26.7535C9.204 27.5334 9.21625 28.1695 9.30385 28.6631C9.3389 28.8598 9.3862 29.0355 9.437 29.1864C9.43875 29.1918 9.4405 29.197 9.44225 29.2022C9.54735 29.508 9.6699 29.7206 9.75068 29.8383C9.761 29.854 9.76639 29.861 9.76639 29.861C9.79959 29.9085 9.82248 29.9366 9.8328 29.949C9.81373 29.9314 9.79443 29.9121 9.77155 29.8909C8.4139 28.5927 3.16183 22.3512 4.11484 15.5265Z" fill="url(#paint1_linear_157_1957)"/>
<path opacity="0.04" d="M13.0985 10.5165C17.0086 6.30402 20.3702 4.65454 22.3026 3.21387C27.39 4.31704 29.177 9.02517 20.4719 14.8959C12.7374 20.1132 10.1483 23.9517 9.45802 26.446C9.2075 25.7188 6.59724 17.5221 13.0985 10.5165Z" fill="white"/>
<path opacity="0.24" d="M8.77657 7.43336C11.8826 4.67351 15.4879 3.31383 18.6378 3.02763C19.9639 2.90816 21.2094 2.97836 22.3026 3.21551C20.3687 4.65438 17.0086 6.30566 13.0985 10.5181C6.59726 17.5219 9.20754 25.7187 9.45804 26.4477V26.4495C9.42826 26.555 9.40373 26.6567 9.38271 26.7552C9.20579 27.5351 9.21804 28.1709 9.30564 28.6646C9.34066 28.8615 9.38796 29.0372 9.43878 29.1882C9.44053 29.1933 9.44228 29.1987 9.44403 29.2039C9.54913 29.5097 9.67174 29.7221 9.75229 29.84C9.76284 29.8557 9.76822 29.8627 9.76822 29.8627C9.80143 29.9102 9.82409 29.9383 9.83464 29.9505C9.81534 29.9329 9.79604 29.9136 9.77338 29.8926C7.87787 28.078 -1.59794 16.6489 8.77657 7.43336Z" fill="white"/>
<path opacity="0.14" d="M4.11487 15.5265C4.49152 12.8301 5.83695 10.0421 8.77655 7.43165C11.8826 4.67202 15.4879 3.31235 18.6378 3.02592C19.9639 2.90645 21.2095 2.97665 22.3026 3.2138C27.2307 4.28367 29.0612 8.7317 21.262 14.3443C16.5863 15.263 10.2989 16.0694 4.11487 15.5265Z" fill="white"/>
<defs>
<linearGradient id="paint0_linear_157_1957" x1="15.4967" y1="45.0698" x2="15.4967" y2="29.9545" gradientUnits="userSpaceOnUse">
<stop stop-color="#28FED7"/>
<stop offset="1" stop-color="#099BA3"/>
</linearGradient>
<linearGradient id="paint1_linear_157_1957" x1="15.2794" y1="-1.56999" x2="15.2794" y2="16.0887" gradientUnits="userSpaceOnUse">
<stop stop-color="#2E56E4"/>
<stop offset="0.0001" stop-color="#0038FF"/>
<stop offset="0.322917" stop-color="#033BFF"/>
<stop offset="1" stop-color="#002BC2"/>
</linearGradient>
</defs>
</svg>
