<svg width="40" height="40" viewBox="0 0 40 40" fill="none" xmlns="http://www.w3.org/2000/svg">
<g id="Illustrator Logomark">
<g id="Illustrator">
<path id="Element" d="M31.4815 2.66669H8.51853C5.04118 2.66669 2.22223 5.48579 2.22223 8.96332V31.0386C2.22223 34.5161 5.04118 37.3352 8.51853 37.3352H31.4815C34.9588 37.3352 37.7778 34.5161 37.7778 31.0386V8.96332C37.7778 5.48579 34.9588 2.66669 31.4815 2.66669Z" fill="#330000"/>
<g id="Element_2">
<path d="M19.4511 23.4731H13.9414L12.8203 26.9556C12.8051 27.0191 12.7681 27.0753 12.7159 27.1145C12.6636 27.1537 12.5993 27.1734 12.5341 27.1703H9.74345C9.58431 27.1703 9.52865 27.0829 9.57649 26.9079L14.3468 13.1685C14.3946 13.0254 14.4423 12.8624 14.49 12.6795C14.5524 12.3613 14.5843 12.0378 14.5854 11.7135C14.5822 11.6908 14.5842 11.6677 14.5915 11.646C14.5987 11.6242 14.6109 11.6045 14.6271 11.5883C14.6433 11.5721 14.6631 11.5599 14.6848 11.5526C14.7065 11.5454 14.7297 11.5433 14.7524 11.5465H18.5447C18.6558 11.5465 18.7195 11.5863 18.7356 11.6658L24.15 26.9318C24.1977 27.0909 24.1499 27.1704 24.0068 27.1703H20.9061C20.8528 27.1762 20.7992 27.1625 20.7553 27.1318C20.7115 27.1011 20.6802 27.0554 20.6676 27.0034L19.4511 23.4731ZM14.8 20.4676H18.5686C18.4732 20.1497 18.3619 19.7919 18.2347 19.3942C18.1072 18.9969 17.9721 18.5715 17.8292 18.118C17.6861 17.6649 17.543 17.2116 17.3999 16.7584C17.2568 16.3052 17.1256 15.8679 17.0063 15.4465C16.887 15.0254 16.7797 14.6397 16.6844 14.2896H16.6605C16.5262 14.9338 16.359 15.5708 16.1596 16.1979C15.9367 16.9135 15.7101 17.645 15.4798 18.3924C15.2491 19.14 15.0225 19.8318 14.8 20.4676Z" fill="#FF9A00"/>
<path d="M27.3739 14.075C27.1306 14.0848 26.888 14.0431 26.6619 13.9527C26.4359 13.8622 26.2314 13.7251 26.062 13.5503C25.8931 13.3678 25.7618 13.1538 25.6758 12.9204C25.5899 12.6871 25.5509 12.4391 25.5611 12.1906C25.5524 11.9446 25.5957 11.6996 25.6882 11.4715C25.7807 11.2433 25.9202 11.0373 26.0977 10.8668C26.2736 10.698 26.4811 10.5658 26.7083 10.4778C26.9355 10.3898 27.1779 10.3477 27.4215 10.3539C27.994 10.3539 28.4432 10.5249 28.7692 10.8668C28.9337 11.0445 29.0616 11.2528 29.1455 11.48C29.2294 11.7072 29.2677 11.9487 29.2581 12.1906C29.2681 12.4401 29.2278 12.6889 29.1398 12.9225C29.0517 13.1561 28.9175 13.3696 28.7453 13.5503C28.5653 13.7277 28.3506 13.8659 28.1145 13.9562C27.8785 14.0465 27.6263 14.087 27.3739 14.075ZM25.728 26.9318V15.53C25.728 15.3869 25.7914 15.3154 25.9189 15.3154H28.8527C28.9798 15.3154 29.0434 15.3869 29.0435 15.53V26.9318C29.0435 27.091 28.9799 27.1705 28.8527 27.1704H25.9427C25.7996 27.1704 25.7281 27.0909 25.728 26.9318Z" fill="#FF9A00"/>
</g>
</g>
</g>
</svg>
