<svg width="32" height="32" viewBox="0 0 32 32" fill="none" xmlns="http://www.w3.org/2000/svg">
<g id="monitor 1">
<path id="Vector (Stroke)" fill-rule="evenodd" clip-rule="evenodd" d="M5.33333 5.33317C4.59695 5.33317 3.99999 5.93012 3.99999 6.6665V19.9998C3.99999 20.7362 4.59695 21.3332 5.33333 21.3332H26.6667C27.403 21.3332 28 20.7362 28 19.9998V6.6665C28 5.93012 27.403 5.33317 26.6667 5.33317H5.33333ZM1.33333 6.6665C1.33333 4.45736 3.12419 2.6665 5.33333 2.6665H26.6667C28.8758 2.6665 30.6667 4.45736 30.6667 6.6665V19.9998C30.6667 22.209 28.8758 23.9998 26.6667 23.9998H5.33333C3.12419 23.9998 1.33333 22.209 1.33333 19.9998V6.6665Z" fill="#033BFF"/>
<path id="Vector (Stroke)_2" fill-rule="evenodd" clip-rule="evenodd" d="M9.33333 27.9998C9.33333 27.2635 9.93028 26.6665 10.6667 26.6665H21.3333C22.0697 26.6665 22.6667 27.2635 22.6667 27.9998C22.6667 28.7362 22.0697 29.3332 21.3333 29.3332H10.6667C9.93028 29.3332 9.33333 28.7362 9.33333 27.9998Z" fill="#033BFF"/>
<path id="Vector (Stroke)_3" fill-rule="evenodd" clip-rule="evenodd" d="M16 21.3335C16.7364 21.3335 17.3333 21.9304 17.3333 22.6668V28.0002C17.3333 28.7365 16.7364 29.3335 16 29.3335C15.2636 29.3335 14.6667 28.7365 14.6667 28.0002V22.6668C14.6667 21.9304 15.2636 21.3335 16 21.3335Z" fill="#033BFF"/>
</g>
</svg>
