<svg width="40" height="40" viewBox="0 0 40 40" fill="none" xmlns="http://www.w3.org/2000/svg">
<g id="Photoshop Logomark">
<g id="Photoshop">
<path id="Element" d="M31.4815 2.66669H8.51853C5.04118 2.66669 2.22223 5.48579 2.22223 8.96332V31.0386C2.22223 34.5161 5.04118 37.3352 8.51853 37.3352H31.4815C34.9588 37.3352 37.7778 34.5161 37.7778 31.0386V8.96332C37.7778 5.48579 34.9588 2.66669 31.4815 2.66669Z" fill="#001E36"/>
<g id="Element_2">
<path d="M10.2274 26.9777V11.7356C10.2274 11.6245 10.2752 11.5686 10.3706 11.5686C10.6247 11.5686 10.8567 11.5649 11.2067 11.5567C11.5563 11.5488 11.934 11.5409 12.3397 11.5328C12.7452 11.525 13.1745 11.517 13.6277 11.5089C14.0808 11.5011 14.53 11.4972 14.9753 11.497C16.1836 11.497 17.2012 11.6481 18.0283 11.9502C18.7744 12.2026 19.4548 12.6182 20.02 13.1667C20.4991 13.6422 20.8694 14.2159 21.1052 14.8484C21.3284 15.4639 21.4414 16.1139 21.4392 16.7686C21.4392 18.041 21.145 19.0905 20.5567 19.9172C19.9644 20.7472 19.132 21.3758 18.1715 21.7181C17.1697 22.0919 16.0565 22.2187 14.8322 22.2187C14.4823 22.2187 14.2358 22.2147 14.0928 22.2068C13.9497 22.1989 13.735 22.1949 13.4488 22.1948V26.9539C13.453 26.983 13.4503 27.0128 13.441 27.0407C13.4317 27.0687 13.416 27.094 13.3951 27.1149C13.3743 27.1357 13.3489 27.1514 13.321 27.1607C13.293 27.17 13.2633 27.1727 13.2341 27.1685H10.3944C10.283 27.1685 10.2274 27.1052 10.2274 26.9777ZM13.4488 14.431V19.4023C13.6553 19.4183 13.8461 19.4263 14.0212 19.4262H14.8083C15.3875 19.4242 15.9628 19.3324 16.5138 19.1539C16.9863 19.0135 17.4086 18.7403 17.7302 18.3667C18.0403 18.0011 18.1953 17.4923 18.1953 16.8401C18.2079 16.3787 18.0879 15.9234 17.8494 15.5282C17.5988 15.146 17.2365 14.8504 16.8119 14.6814C16.2575 14.4659 15.6652 14.3645 15.0707 14.3833C14.6891 14.3833 14.3512 14.3872 14.057 14.3952C13.7626 14.4034 13.5599 14.4153 13.4488 14.431Z" fill="#31A8FF"/>
<path d="M30.6616 18.4979C30.2133 18.2676 29.7359 18.0991 29.2424 17.997C28.6986 17.8722 28.1426 17.8082 27.5847 17.8062C27.2829 17.798 26.9815 17.8342 26.6902 17.9135C26.5048 17.9548 26.3401 18.0605 26.2251 18.2117C26.1474 18.3327 26.106 18.4734 26.1059 18.6172C26.1102 18.7567 26.1605 18.8909 26.249 18.9988C26.3883 19.1618 26.5585 19.2956 26.7498 19.3924C27.0899 19.5756 27.4403 19.7388 27.7993 19.8814C28.5998 20.1494 29.3648 20.5138 30.0772 20.9667C30.5625 21.273 30.9641 21.6952 31.2459 22.1951C31.4829 22.6686 31.6016 23.1924 31.5918 23.7218C31.6061 24.4208 31.4063 25.1074 31.0194 25.6897C30.6051 26.2807 30.0297 26.7402 29.3616 27.0135C28.6379 27.3314 27.7434 27.4905 26.6783 27.4906C26.0017 27.4974 25.3262 27.4334 24.6628 27.2997C24.1402 27.2039 23.6314 27.0437 23.1482 26.8227C23.0961 26.7957 23.0527 26.7545 23.0231 26.7038C22.9935 26.6531 22.979 26.5951 22.9813 26.5364V23.9603C22.9784 23.9351 22.9824 23.9095 22.9929 23.8864C23.0034 23.8633 23.02 23.8435 23.0409 23.8291C23.0614 23.8175 23.0849 23.8125 23.1084 23.8146C23.1318 23.8167 23.154 23.8259 23.1721 23.841C23.7427 24.1775 24.3624 24.423 25.0087 24.5685C25.5783 24.7113 26.1626 24.7874 26.7499 24.7951C27.3063 24.7951 27.7157 24.7236 27.9782 24.5805C28.0968 24.5262 28.197 24.4388 28.2669 24.3287C28.3367 24.2186 28.3732 24.0906 28.3718 23.9603C28.3718 23.7538 28.2526 23.5551 28.014 23.364C27.7755 23.1731 27.2905 22.9425 26.559 22.6722C25.8101 22.4115 25.1 22.0504 24.4481 21.5988C23.9819 21.2746 23.598 20.8457 23.3271 20.3465C23.0925 19.8765 22.974 19.3571 22.9813 18.8319C22.9799 18.2007 23.1533 17.5816 23.4821 17.0429C23.8571 16.4497 24.3955 15.9775 25.0326 15.6833C25.7321 15.3337 26.6066 15.1587 27.6563 15.1585C28.271 15.1535 28.8851 15.1974 29.4929 15.2897C29.933 15.3455 30.3632 15.4619 30.7715 15.6355C30.8039 15.6448 30.8336 15.6615 30.8585 15.6843C30.8833 15.7071 30.9025 15.7353 30.9146 15.7667C30.9307 15.825 30.9387 15.8852 30.9384 15.9456V18.3548C30.9401 18.3828 30.9343 18.4108 30.9218 18.4359C30.9092 18.461 30.8903 18.4824 30.8669 18.4979C30.835 18.5138 30.7999 18.522 30.7642 18.522C30.7286 18.5221 30.6935 18.5138 30.6616 18.4979Z" fill="#31A8FF"/>
</g>
</g>
</g>
</svg>
