<svg width="105" height="40" viewBox="0 0 105 40" fill="none" xmlns="http://www.w3.org/2000/svg">
<g id="Secondary Logo">
<g id="Group 41">
<path id="Vector" d="M21.6755 27.1803C21.3422 29.5428 20.1516 31.9851 17.5505 34.272C14.8021 36.6896 11.6118 37.8809 8.82477 38.1317C7.65125 38.2363 6.54903 38.1749 5.58178 37.9671C1.2212 37.0298 -0.398717 33.1332 6.50267 28.2162C6.72727 28.0559 6.95996 27.8959 7.20337 27.7329C14.0472 23.1621 16.3383 19.7994 16.9491 17.6141V17.6126C16.9755 17.5203 16.9972 17.4309 17.0158 17.3447C17.1724 16.6614 17.1614 16.1043 17.084 15.672C17.053 15.4996 17.0112 15.3457 16.9661 15.2133C16.9646 15.2087 16.9631 15.2041 16.9615 15.1994C16.8686 14.9317 16.7599 14.7454 16.6886 14.6425C16.6794 14.6286 16.6748 14.6223 16.6748 14.6223C16.6453 14.5808 16.6252 14.5563 16.6158 14.5454C16.6328 14.5608 16.6499 14.5778 16.67 14.5962C17.8715 15.7335 22.5188 21.2016 21.6755 27.1803Z" fill="url(#paint0_linear_127_1327)"/>
<path id="Vector_2" opacity="0.04" d="M13.4614 31.895C10.0785 35.5214 7.16973 36.9414 5.49796 38.1816C1.09632 37.2318 -0.449713 33.179 7.08184 28.1249C13.7738 23.6334 16.014 20.329 16.6112 18.1816C16.8278 18.8093 19.0864 25.8655 13.4614 31.895Z" fill="white"/>
<path id="Vector_3" opacity="0.24" d="M17.5149 34.272C14.743 36.6896 11.5257 37.8809 8.71479 38.1317C7.5313 38.2363 6.41993 38.1749 5.44434 37.9671C7.17026 36.7065 10.1687 35.2599 13.6581 31.5695C19.4595 25.4336 17.1302 18.2529 16.9066 17.6141V17.6126C16.9333 17.5203 16.9551 17.4309 16.9739 17.3447C17.1318 16.6614 17.121 16.1043 17.0427 15.672C17.0114 15.4996 16.9692 15.3457 16.9238 15.2133C16.9223 15.2087 16.9207 15.2041 16.9192 15.1994C16.8254 14.9317 16.716 14.7454 16.6441 14.6425C16.6347 14.6286 16.63 14.6223 16.63 14.6223C16.6002 14.5808 16.58 14.5563 16.5705 14.5454C16.5877 14.5608 16.6049 14.5778 16.6254 14.5962C18.3168 16.1844 26.7728 26.1985 17.5149 34.272Z" fill="white"/>
<path id="Vector_4" opacity="0.14" d="M21.7771 27.4225C21.4421 29.7329 20.2455 32.1215 17.631 34.3581C14.8686 36.7225 11.6619 37.8876 8.86064 38.1328C7.68112 38.2352 6.57325 38.1751 5.60106 37.9719C1.21816 37.0552 -0.410044 33.2444 6.52665 28.4356C10.6851 27.6484 16.2772 26.959 21.7771 27.4225Z" fill="white"/>
<path id="Vector_5" d="M1.91656 12.8194C2.24983 10.4571 3.44036 8.01478 6.04151 5.72789C8.78997 3.31008 11.9801 2.11897 14.7673 1.8682C15.9408 1.76355 17.0428 1.825 18.0103 2.03278C22.3709 2.97007 23.9908 6.86667 17.0894 11.7837C16.8646 11.9437 16.6321 12.1037 16.3887 12.267C9.5449 16.8378 7.25364 20.2003 6.64305 22.3857V22.3873C6.61661 22.4795 6.59491 22.5688 6.5763 22.655C6.41974 23.3382 6.43061 23.8954 6.50811 24.3279C6.5391 24.5002 6.58096 24.6542 6.62593 24.7864C6.62752 24.7912 6.62905 24.7957 6.63058 24.8003C6.72353 25.068 6.832 25.2543 6.9033 25.3574C6.9127 25.3713 6.91729 25.3774 6.91729 25.3774C6.94682 25.4191 6.96694 25.4436 6.97634 25.4545C6.95928 25.4391 6.94222 25.4221 6.9221 25.4037C5.72062 24.2664 1.07328 18.7983 1.91656 12.8194Z" fill="url(#paint1_linear_127_1327)"/>
<path id="Vector_6" opacity="0.04" d="M10.1303 8.39049C13.5134 4.5991 16.422 3.11448 18.0938 1.81812C22.4956 2.81091 24.0416 7.04818 16.5099 12.332C9.81812 17.0276 7.57776 20.482 6.98074 22.7272C6.76393 22.0726 4.50551 14.6956 10.1303 8.39049Z" fill="white"/>
<path id="Vector_7" opacity="0.24" d="M6.07713 5.72789C8.84892 3.31008 12.0661 2.11897 14.8771 1.8682C16.0606 1.76355 17.1721 1.825 18.1476 2.03278C16.4216 3.29314 13.4232 4.73979 9.93382 8.43035C4.13236 14.5663 6.4617 21.747 6.6853 22.3858V22.3873C6.65868 22.4795 6.6368 22.5688 6.61803 22.655C6.46014 23.3385 6.4711 23.8954 6.54926 24.3279C6.58052 24.5003 6.62273 24.6542 6.6681 24.7866C6.66964 24.7912 6.67118 24.7957 6.67273 24.8003C6.76646 25.0682 6.87608 25.2543 6.94798 25.3574C6.95724 25.3713 6.96187 25.3774 6.96187 25.3774C6.99165 25.4191 7.01194 25.4436 7.02142 25.4545C7.00422 25.4391 6.98702 25.4221 6.96673 25.4037C5.27515 23.8139 -3.18088 13.8014 6.07713 5.72789Z" fill="white"/>
<path id="Vector_8" opacity="0.14" d="M1.81494 12.5767C2.14992 10.2666 3.34654 7.8781 5.961 5.64165C8.7236 3.27717 11.93 2.11234 14.7315 1.8671C15.9108 1.76476 17.0187 1.82484 17.9909 2.02804C22.3738 2.94466 24.0022 6.75531 17.0655 11.5639C12.9069 12.351 7.31503 13.0419 1.81494 12.5767Z" fill="white"/>
</g>
<path id="Vector_9" d="M36.4672 31.8183C35.0708 31.8183 33.8085 31.5745 32.6799 31.0872C31.5705 30.5997 30.6905 29.898 30.0402 28.9817C29.3899 28.0654 29.0552 26.9833 29.0361 25.7356H33.3397C33.3971 26.5739 33.6842 27.2368 34.2006 27.7241C34.7361 28.2116 35.4629 28.4553 36.3812 28.4553C37.3184 28.4553 38.0549 28.231 38.5904 27.7826C39.1259 27.3147 39.3939 26.7104 39.3939 25.9696C39.3939 25.3651 39.2122 24.8681 38.8486 24.4782C38.4851 24.0882 38.0261 23.786 37.4715 23.5716C36.9358 23.3377 36.1899 23.0843 35.2335 22.8114C33.9329 22.4214 32.8712 22.0412 32.0486 21.6707C31.2453 21.2808 30.5471 20.7056 29.9542 19.9454C29.3804 19.1656 29.0935 18.1323 29.0935 16.8457C29.0935 15.6368 29.3899 14.5841 29.9828 13.6872C30.5759 12.7906 31.4078 12.1081 32.479 11.6402C33.5503 11.1529 34.7745 10.9092 36.1516 10.9092C38.2174 10.9092 39.8911 11.4258 41.1727 12.4592C42.4733 13.4728 43.1906 14.8961 43.3247 16.7287H38.9061C38.8677 16.0268 38.5714 15.4516 38.0166 15.0034C37.4811 14.5353 36.7638 14.3015 35.8648 14.3015C35.0806 14.3015 34.4493 14.5062 33.971 14.9155C33.5119 15.3249 33.2825 15.9197 33.2825 16.6993C33.2825 17.2453 33.4545 17.7035 33.799 18.0738C34.1623 18.4248 34.6023 18.7172 35.1187 18.9512C35.6542 19.1656 36.4003 19.4191 37.3567 19.7114C38.6574 20.1013 39.7191 20.4913 40.5414 20.8812C41.364 21.2711 42.0717 21.856 42.6646 22.6358C43.2577 23.4157 43.5541 24.4391 43.5541 25.7064C43.5541 26.7981 43.2768 27.8119 42.722 28.7477C42.1674 29.6834 41.3544 30.4341 40.2832 30.9993C39.2122 31.5454 37.9401 31.8183 36.4672 31.8183Z" fill="#212423"/>
<path id="Vector_10" d="M77.2988 31.8183C75.9026 31.8183 74.6401 31.5745 73.5116 31.0872C72.402 30.5997 71.5223 29.898 70.872 28.9817C70.2214 28.0654 69.8867 26.9833 69.8677 25.7356H74.1715C74.2289 26.5739 74.5157 27.2368 75.0322 27.7241C75.5677 28.2116 76.2947 28.4553 77.2128 28.4553C78.1501 28.4553 78.8865 28.231 79.422 27.7826C79.9577 27.3147 80.2254 26.7104 80.2254 25.9696C80.2254 25.3651 80.0437 24.8681 79.6802 24.4782C79.3169 24.0882 78.8579 23.786 78.3031 23.5716C77.7676 23.3377 77.0215 23.0843 76.0651 22.8114C74.7644 22.4214 73.7029 22.0412 72.8804 21.6707C72.0769 21.2808 71.3787 20.7056 70.7858 19.9454C70.2119 19.1656 69.9251 18.1323 69.9251 16.8457C69.9251 15.6368 70.2214 14.5841 70.8146 13.6872C71.4075 12.7906 72.2396 12.1081 73.3106 11.6402C74.3818 11.1529 75.606 10.9092 76.9831 10.9092C79.0491 10.9092 80.7228 11.4258 82.0042 12.4592C83.3051 13.4728 84.0223 14.8961 84.1562 16.7287H79.7376C79.6995 16.0268 79.4029 15.4516 78.8481 15.0034C78.3126 14.5353 77.5953 14.3015 76.6963 14.3015C75.9121 14.3015 75.2808 14.5062 74.8027 14.9155C74.3435 15.3249 74.1141 15.9197 74.1141 16.6993C74.1141 17.2453 74.2863 17.7035 74.6305 18.0738C74.994 18.4248 75.4338 18.7172 75.9502 18.9512C76.486 19.1656 77.2318 19.4191 78.1883 19.7114C79.4889 20.1013 80.5506 20.4913 81.3732 20.8812C82.1955 21.2711 82.9032 21.856 83.4964 22.6358C84.0893 23.4157 84.3856 24.4391 84.3856 25.7064C84.3856 26.7981 84.1083 27.8119 83.5538 28.7477C82.999 29.6834 82.186 30.4341 81.1149 30.9993C80.0437 31.5454 78.7716 31.8183 77.2988 31.8183Z" fill="#212423"/>
<path id="Vector_11" d="M95.4463 31.8183C94.0499 31.8183 92.7874 31.5745 91.659 31.0872C90.5497 30.5997 89.6697 29.898 89.0194 28.9817C88.3691 28.0654 88.0344 26.9833 88.0151 25.7356H92.3189C92.3763 26.5739 92.6633 27.2368 93.1798 27.7241C93.7153 28.2116 94.4421 28.4553 95.3601 28.4553C96.2975 28.4553 97.0338 28.231 97.5695 27.7826C98.105 27.3147 98.3728 26.7104 98.3728 25.9696C98.3728 25.3651 98.191 24.8681 97.8277 24.4782C97.4642 24.0882 97.0052 23.786 96.4504 23.5716C95.9149 23.3377 95.1688 23.0843 94.2126 22.8114C92.9118 22.4214 91.8503 22.0412 91.0278 21.6707C90.2245 21.2808 89.5263 20.7056 88.9334 19.9454C88.3596 19.1656 88.0725 18.1323 88.0725 16.8457C88.0725 15.6368 88.3691 14.5841 88.962 13.6872C89.5549 12.7906 90.387 12.1081 91.4582 11.6402C92.5292 11.1529 93.7534 10.9092 95.1307 10.9092C97.1965 10.9092 98.8701 11.4258 100.152 12.4592C101.452 13.4728 102.17 14.8961 102.303 16.7287H97.8851C97.8468 16.0268 97.5502 15.4516 96.9957 15.0034C96.4602 14.5353 95.7427 14.3015 94.8437 14.3015C94.0595 14.3015 93.4282 14.5062 92.9501 14.9155C92.4911 15.3249 92.2615 15.9197 92.2615 16.6993C92.2615 17.2453 92.4337 17.7035 92.7779 18.0738C93.1414 18.4248 93.5814 18.7172 94.0978 18.9512C94.6333 19.1656 95.3794 19.4191 96.3358 19.7114C97.6364 20.1013 98.6979 20.4913 99.5205 20.8812C100.343 21.2711 101.051 21.856 101.644 22.6358C102.237 23.4157 102.533 24.4391 102.533 25.7064C102.533 26.7981 102.256 27.8119 101.701 28.7477C101.146 29.6834 100.333 30.4341 99.2622 30.9993C98.191 31.5454 96.9192 31.8183 95.4463 31.8183Z" fill="#212423"/>
<path id="Vector_12" d="M47.1836 21.3783C47.1836 19.3648 47.612 17.566 48.4689 15.9825C49.3444 14.3794 50.527 13.1379 52.0171 12.2583C53.5259 11.3589 55.2116 10.9092 57.0743 10.9092C59.2536 10.9092 61.1627 11.4957 62.8018 12.6688C64.4409 13.8418 65.5866 15.4644 66.2384 17.5368H61.7401C61.2931 16.5592 60.6598 15.8261 59.8403 15.3373C59.0393 14.8486 58.1079 14.6042 57.0462 14.6042C55.91 14.6042 54.8949 14.8878 54.0009 15.4546C53.1255 16.0019 52.4363 16.784 51.9334 17.8007C51.449 18.8172 51.2069 20.0098 51.2069 21.3783C51.2069 22.7274 51.449 23.92 51.9334 24.9562C52.4363 25.9727 53.1255 26.7645 54.0009 27.3315C54.8949 27.8789 55.91 28.1525 57.0462 28.1525C58.1079 28.1525 59.0393 27.9081 59.8403 27.4194C60.6598 26.9111 61.2931 26.1682 61.7401 25.1907H66.2384C65.5866 27.2826 64.4409 28.9151 62.8018 30.0881C61.1813 31.2415 59.2722 31.8183 57.0743 31.8183C55.2116 31.8183 53.5259 31.3783 52.0171 30.4986C50.527 29.5993 49.3444 28.3578 48.4689 26.7742C47.612 25.1907 47.1836 23.3921 47.1836 21.3783Z" fill="#212423"/>
</g>
<defs>
<linearGradient id="paint0_linear_127_1327" x1="11.7964" y1="38.4433" x2="11.7964" y2="25.2015" gradientUnits="userSpaceOnUse">
<stop stop-color="#28FED7"/>
<stop offset="1" stop-color="#099BA3"/>
</linearGradient>
<linearGradient id="paint1_linear_127_1327" x1="11.7957" y1="-2.15821" x2="11.7957" y2="13.312" gradientUnits="userSpaceOnUse">
<stop stop-color="#2E56E4"/>
<stop offset="0.0001" stop-color="#0038FF"/>
<stop offset="0.322917" stop-color="#033BFF"/>
<stop offset="1" stop-color="#002BC2"/>
</linearGradient>
</defs>
</svg>
