<svg width="1114" height="1202" viewBox="0 0 1114 1202" fill="none" xmlns="http://www.w3.org/2000/svg">
<g opacity="0.6" filter="url(#filter0_f_144_1759)">
<path d="M319.088 580.925C327.114 524.04 355.783 465.224 418.423 410.153C484.61 351.928 561.432 323.245 628.553 317.206C656.813 314.686 683.35 316.166 706.649 321.169C811.657 343.741 850.666 437.576 684.472 555.986C679.058 559.839 673.46 563.692 667.598 567.624C502.79 677.694 447.613 758.668 432.909 811.298V811.334C432.272 813.556 431.75 815.705 431.301 817.781C427.531 834.235 427.793 847.651 429.659 858.066C430.406 862.218 431.414 865.925 432.496 869.109C432.535 869.224 432.572 869.334 432.609 869.444C434.847 875.89 437.459 880.376 439.176 882.86C439.402 883.194 439.513 883.341 439.513 883.341C440.224 884.345 440.708 884.936 440.935 885.197C440.524 884.826 440.113 884.418 439.629 883.973C410.695 856.587 298.781 724.907 319.088 580.925Z" fill="url(#paint0_linear_144_1759)"/>
<path opacity="0.04" d="M516.888 474.272C598.357 382.97 668.4 347.218 708.658 316C814.66 339.908 851.89 441.947 670.516 569.189C509.369 682.266 455.418 765.452 441.041 819.52C435.82 803.755 381.434 626.109 516.888 474.272Z" fill="white"/>
<path opacity="0.24" d="M419.281 410.153C486.029 351.929 563.504 323.245 631.196 317.206C659.696 314.686 686.464 316.166 709.956 321.169C668.39 351.521 596.184 386.358 512.155 475.232C372.448 622.994 428.542 795.915 433.926 811.298V811.334C433.285 813.556 432.758 815.705 432.306 817.781C428.504 834.24 428.768 847.651 430.65 858.066C431.403 862.218 432.419 865.925 433.512 869.114C433.549 869.224 433.586 869.334 433.623 869.444C435.881 875.895 438.52 880.376 440.252 882.86C440.475 883.194 440.586 883.341 440.586 883.341C441.303 884.345 441.792 884.936 442.021 885.197C441.606 884.826 441.192 884.418 440.703 883.974C399.968 845.691 196.335 604.574 419.281 410.153Z" fill="white"/>
<path opacity="0.14" d="M316.641 575.082C324.708 519.451 353.524 461.933 416.484 408.076C483.011 351.136 560.226 323.085 627.691 317.18C656.09 314.715 682.769 316.162 706.182 321.055C811.728 343.129 850.941 434.895 683.897 550.692C583.75 569.647 449.091 586.285 316.641 575.082Z" fill="white"/>
</g>
<defs>
<filter id="filter0_f_144_1759" x="0.641113" y="0" width="1112.72" height="1201.2" filterUnits="userSpaceOnUse" color-interpolation-filters="sRGB">
<feFlood flood-opacity="0" result="BackgroundImageFix"/>
<feBlend mode="normal" in="SourceGraphic" in2="BackgroundImageFix" result="shape"/>
<feGaussianBlur stdDeviation="158" result="effect1_foregroundBlur_144_1759"/>
</filter>
<linearGradient id="paint0_linear_144_1759" x1="556.992" y1="220.245" x2="556.992" y2="592.789" gradientUnits="userSpaceOnUse">
<stop stop-color="#2E56E4"/>
<stop offset="0.0001" stop-color="#0038FF"/>
<stop offset="0.322917" stop-color="#033BFF"/>
<stop offset="1" stop-color="#002BC2"/>
</linearGradient>
</defs>
</svg>
