<svg width="40" height="40" viewBox="0 0 40 40" fill="none" xmlns="http://www.w3.org/2000/svg">
<g id="Sketch Logomark">
<g id="Sketch Logomark_2">
<path d="M9.98023 5.05929L20.0004 3.99994L30.0206 5.05929L37.7782 15.4733L20.0004 36.1756L2.22266 15.4733L9.98023 5.05929Z" fill="#FDB300"/>
<path d="M9.42355 15.4735L20.0004 36.1756L2.22266 15.4733L9.42355 15.4735Z" fill="#EA6C00"/>
<path d="M30.5771 15.4735L20.0004 36.1756L37.7782 15.4733L30.5771 15.4735Z" fill="#EA6C00"/>
<path d="M9.42355 15.4735L30.5771 15.4735L20.0004 36.1756L9.42355 15.4735Z" fill="#FDAD00"/>
<path d="M20.0004 3.99994L9.98023 5.05929L9.42355 15.4735L20.0004 3.99994Z" fill="#FDD231"/>
<path d="M20.0004 3.99994L30.0206 5.05929L30.5771 15.4735L20.0004 3.99994Z" fill="#FDD231"/>
<path d="M37.7782 15.4733L30.0206 5.05929L30.5771 15.4735L37.7782 15.4733Z" fill="#FDAD00"/>
<path d="M2.22266 15.4733L9.98023 5.05929L9.42355 15.4735L2.22266 15.4733Z" fill="#FDAD00"/>
<path d="M20.0004 3.99994L9.42355 15.4735L30.5771 15.4735L20.0004 3.99994Z" fill="#FEEEB7"/>
</g>
</g>
</svg>
