<svg width="337" height="399" viewBox="0 0 337 399" fill="none" xmlns="http://www.w3.org/2000/svg">
<path d="M3.56876 176.874C9.27382 138.95 28.7321 99.8686 70.7788 63.5005C115.205 25.0542 166.525 6.39363 211.242 2.78746C230.07 1.28442 247.726 2.44379 263.201 5.93266C332.954 21.6671 358.323 84.5575 246.942 162.549C243.315 165.086 239.565 167.625 235.637 170.209C125.23 242.641 87.9885 296.35 77.8626 331.386L77.8623 331.411C77.4258 332.893 77.0643 334.323 76.7529 335.707C74.138 346.668 74.2265 355.624 75.4027 362.588C75.873 365.365 76.5204 367.844 77.2206 369.98C77.2449 370.054 77.2689 370.128 77.2933 370.202C78.7428 374.523 80.4536 377.533 81.5798 379.202C81.7294 379.425 81.8026 379.527 81.8026 379.527C82.2654 380.199 82.5863 380.596 82.7328 380.773C82.4635 380.521 82.1909 380.248 81.8727 379.946C62.7889 361.481 -10.8668 272.865 3.56876 176.874Z" fill="url(#paint0_linear_322_84)"/>
<path opacity="0.04" d="M131.426 106.976C187.528 48.0943 235.496 25.2857 263.132 5.23135C335.235 21.4814 359.98 88.1225 235.558 169.745C125.008 242.282 87.7185 296.069 77.5799 331.155C74.12 320.867 38.1525 204.904 131.426 106.976Z" fill="white"/>
<path opacity="0.24" d="M70.5577 63.4984C114.843 25.0508 166 6.38862 210.573 2.78108C229.342 1.27747 246.942 2.43628 262.367 5.92468C234.829 25.9261 187.1 48.728 131.247 107.53C38.3882 205.291 74.1918 321.086 77.6356 331.384L77.6354 331.412C77.1999 332.891 76.8394 334.324 76.529 335.705C73.9225 346.666 74.0104 355.622 75.1826 362.586C75.6513 365.363 76.2966 367.846 76.9945 369.978C77.0184 370.052 77.0427 370.126 77.0666 370.204C78.5117 374.521 80.217 377.531 81.3389 379.2C81.488 379.422 81.5609 379.525 81.5609 379.525C82.0258 380.197 82.342 380.593 82.4881 380.77C82.2197 380.518 81.9514 380.245 81.6307 379.944C55.0747 354.131 -77.3636 191.89 70.5577 63.4984Z" fill="white"/>
<path opacity="0.14" d="M1.94317 176.508C7.67482 138.66 27.2303 99.6568 69.4892 63.3636C114.141 24.9965 165.723 6.37638 210.667 2.78038C229.588 1.28156 247.338 2.43986 262.892 5.92287C333.003 21.6309 358.506 84.3984 246.561 162.228C179.779 174.504 90.032 184.982 1.94317 176.508Z" fill="white"/>
<path d="M86.9378 398C85.6676 398 84.4275 397.875 83.2286 397.638L83.0346 398.619C80.4107 398.1 77.9713 397.068 75.8255 395.631L76.3818 394.8C74.3094 393.413 72.5249 391.628 71.1375 389.556L70.3065 390.112C68.8699 387.966 67.8376 385.527 67.3185 382.903L68.2995 382.709C68.0623 381.51 67.9378 380.27 67.9378 379V373.896H66.9378V363.688H67.9378V353.479H66.9378V343.271H67.9378V333.062H66.9378V322.854H67.9378V312.646H66.9378V302.438H67.9378V292.229H66.9378V282.021H67.9378V271.812H66.9378V261.604H67.9378V251.396H66.9378V241.187H67.9378V230.979H66.9378V220.771H67.9378V210.562H66.9378V200.354H67.9378V190.146H66.9378V179.938H67.9378V169.729H66.9378V159.521H67.9378V149.313H66.9378V139.104H67.9378V134C67.9378 132.262 67.9939 130.537 68.1044 128.827L67.1065 128.763C67.3343 125.237 67.7906 121.774 68.4605 118.387L69.4415 118.581C70.1166 115.169 71.0114 111.836 72.1106 108.597L71.1636 108.275C72.2923 104.95 73.6338 101.722 75.1719 98.6092L76.0684 99.0522C77.6012 95.95 79.3317 92.9628 81.2435 90.1071L80.4126 89.5507C82.3585 86.6442 84.4898 83.8723 86.7896 81.2519L87.5411 81.9116C89.8159 79.3198 92.2576 76.8781 94.8494 74.6033L94.1898 73.8517C96.8101 71.5519 99.582 69.4206 102.489 67.4748L103.045 68.3057C105.901 66.3939 108.888 64.6634 111.99 63.1306L111.547 62.2341C114.66 60.696 117.888 59.3545 121.213 58.2258L121.535 59.1728C124.773 58.0736 128.107 57.1788 131.519 56.5037L131.325 55.5227C134.711 54.8528 138.175 54.3965 141.701 54.1687L141.765 55.1666C143.475 55.0561 145.2 55 146.938 55H151.66V54H161.104V55H170.549V54H179.993V55H189.438V54H198.882V55H208.327V54H217.771V55H227.216V54H236.66V55H246.104V54H255.549V55H264.993V54H274.438V55H283.882V54H293.327V55H302.771V54H312.216V55H316.938C318.208 55 319.448 55.1245 320.647 55.3617L320.841 54.3807C323.465 54.8998 325.904 55.9321 328.05 57.3687L327.494 58.1997C329.566 59.5871 331.351 61.3716 332.738 63.444L333.569 62.8877C335.006 65.0335 336.038 67.4729 336.557 70.0968L335.576 70.2908C335.813 71.4897 335.938 72.7298 335.938 74V79.1042H336.938V89.3125H335.938V99.5208H336.938V109.729H335.938V119.938H336.938V130.146H335.938V140.354H336.938V150.562H335.938V160.771H336.938V170.979H335.938V181.188H336.938V191.396H335.938V201.604H336.938V211.813H335.938V222.021H336.938V232.229H335.938V242.438H336.938V252.646H335.938V262.854H336.938V273.062H335.938V283.271H336.938V293.479H335.938V303.687H336.938V313.896H335.938V319C335.938 320.738 335.882 322.463 335.771 324.173L336.769 324.237C336.541 327.763 336.085 331.226 335.415 334.613L334.434 334.419C333.759 337.831 332.864 341.164 331.765 344.403L332.712 344.725C331.583 348.05 330.242 351.278 328.704 354.391L327.807 353.948C326.274 357.05 324.544 360.037 322.632 362.893L323.463 363.449C321.517 366.356 319.386 369.128 317.086 371.748L316.334 371.088C314.06 373.68 311.618 376.122 309.026 378.397L309.686 379.148C307.065 381.448 304.294 383.579 301.387 385.525L300.831 384.694C297.975 386.606 294.988 388.337 291.886 389.869L292.329 390.766C289.216 392.304 285.988 393.646 282.662 394.774L282.341 393.827C279.102 394.926 275.769 395.821 272.357 396.496L272.551 397.477C269.164 398.147 265.701 398.603 262.175 398.831L262.111 397.833C260.401 397.944 258.676 398 256.938 398H252.216V399H242.771V398H233.327V399H223.882V398H214.438V399H204.993V398H195.549V399H186.104V398H176.66V399H167.216V398H157.771V399H148.327V398H138.882V399H129.438V398H119.993V399H110.549V398H101.104V399H91.6601V398H86.9378Z" stroke="#5A7FFF" stroke-width="2" stroke-dasharray="10 10"/>
<defs>
<linearGradient id="paint0_linear_322_84" x1="164.226" y1="-62.3948" x2="161.85" y2="186.304" gradientUnits="userSpaceOnUse">
<stop stop-color="#2E56E4"/>
<stop offset="0.0001" stop-color="#0038FF"/>
<stop offset="0.322917" stop-color="#033BFF"/>
<stop offset="1" stop-color="#002BC2"/>
</linearGradient>
</defs>
</svg>
