<svg width="338" height="399" viewBox="0 0 338 399" fill="none" xmlns="http://www.w3.org/2000/svg">
<path d="M4.50654 176.874C10.2116 138.95 29.6699 99.8686 71.7166 63.5005C116.143 25.0542 167.463 6.39363 212.179 2.78746C231.008 1.28442 248.664 2.44379 264.139 5.93266C333.892 21.6671 359.261 84.5575 247.88 162.549C244.253 165.086 240.502 167.625 236.575 170.209C126.168 242.641 88.9262 296.35 78.8004 331.386L78.8001 331.411C78.3636 332.893 78.0021 334.323 77.6907 335.707C75.0758 346.668 75.1642 355.624 76.3405 362.588C76.8108 365.365 77.4582 367.844 78.1583 369.98C78.1827 370.054 78.2067 370.128 78.231 370.202C79.6806 374.523 81.3914 377.533 82.5176 379.202C82.6672 379.425 82.7403 379.527 82.7403 379.527C83.2032 380.199 83.5241 380.596 83.6706 380.773C83.4013 380.521 83.1287 380.248 82.8105 379.946C63.7267 361.481 -9.92899 272.865 4.50654 176.874Z" fill="url(#paint0_linear_322_45)"/>
<path opacity="0.04" d="M132.364 106.976C188.466 48.0943 236.433 25.2857 264.07 5.23135C336.173 21.4814 360.918 88.1225 236.495 169.745C125.946 242.282 88.6563 296.069 78.5177 331.155C75.0578 320.867 39.0903 204.904 132.364 106.976Z" fill="white"/>
<path opacity="0.24" d="M71.4954 63.4984C115.78 25.0508 166.938 6.38862 211.511 2.78108C230.28 1.27747 247.879 2.43628 263.304 5.92468C235.767 25.9261 188.038 48.728 132.185 107.53C39.326 205.291 75.1295 321.086 78.5734 331.384L78.5731 331.412C78.1376 332.891 77.7771 334.324 77.4668 335.705C74.8603 346.666 74.9481 355.622 76.1204 362.586C76.5891 365.363 77.2344 367.846 77.9323 369.978C77.9562 370.052 77.9804 370.126 78.0043 370.204C79.4495 374.521 81.1547 377.531 82.2766 379.2C82.4258 379.422 82.4986 379.525 82.4986 379.525C82.9635 380.197 83.2798 380.593 83.4258 380.77C83.1574 380.518 82.8892 380.245 82.5685 379.944C56.0125 354.131 -76.4258 191.89 71.4954 63.4984Z" fill="white"/>
<path opacity="0.14" d="M2.88094 176.508C8.6126 138.66 28.1681 99.6568 70.4269 63.3636C115.079 24.9965 166.66 6.37638 211.605 2.78038C230.526 1.28156 248.276 2.43986 263.83 5.92287C333.941 21.6309 359.444 84.3984 247.498 162.228C180.716 174.504 90.9698 184.982 2.88094 176.508Z" fill="white"/>
<path d="M71.2443 390.112C69.8077 387.966 68.7754 385.527 68.2563 382.903L69.2373 382.709C69.0001 381.51 68.8756 380.27 68.8756 379V373.896H67.8756V363.687H68.8756V353.479H67.8756V343.271H68.8756V333.062H67.8756V322.854H68.8756V312.646H67.8756V302.438H68.8756V292.229H67.8756V282.021H68.8756V271.813H67.8756V261.604H68.8756V251.396H67.8756V241.188H68.8756V230.979H67.8756V220.771H68.8756V210.562H67.8756V200.354H68.8756V190.146H67.8756V179.938H68.8756V169.729H67.8756V159.521H68.8756V149.312H67.8756V139.104H68.8756V134C68.8756 132.262 68.9317 130.537 69.0422 128.827L68.0443 128.763C68.2721 125.237 68.7284 121.774 69.3983 118.387L70.3793 118.581C71.0544 115.169 71.9492 111.836 73.0484 108.597L72.1014 108.275C73.2301 104.95 74.5716 101.722 76.1097 98.6092L77.0062 99.0522C78.539 95.95 80.2695 92.9628 82.1813 90.1071L81.3504 89.5508C83.2963 86.6442 85.4276 83.8723 87.7274 81.252L88.4789 81.9116C90.7537 79.3198 93.1954 76.8781 95.7872 74.6033L95.1276 73.8518C97.7479 71.552 100.52 69.4206 103.426 67.4748L103.983 68.3057C106.838 66.3939 109.826 64.6634 112.928 63.1306L112.485 62.2341C115.598 60.696 118.825 59.3545 122.151 58.2258L122.472 59.1728C125.711 58.0736 129.044 57.1788 132.457 56.5037L132.263 55.5227C135.649 54.8528 139.113 54.3965 142.638 54.1687L142.703 55.1666C144.413 55.0561 146.138 55 147.876 55H152.598V54H162.042V55H171.487V54H180.931V55H190.376V54H199.82V55H209.265V54H218.709V55H228.153V54H237.598V55H247.042V54H256.487V55H265.931V54H275.376V55H284.82V54H294.264V55H303.709V54H313.153V55H317.876C319.146 55 320.386 55.1245 321.585 55.3617L321.779 54.3807C324.403 54.8998 326.842 55.9321 328.988 57.3687L328.432 58.1997C330.504 59.5871 332.289 61.3716 333.676 63.444L334.507 62.8877C335.944 65.0335 336.976 67.4729 337.495 70.0968L336.514 70.2908C336.751 71.4897 336.876 72.7298 336.876 74V79.1042H337.876V89.3125H336.876V99.5209H337.876V109.729H336.876V119.938H337.876V130.146H336.876V140.354H337.876V150.562H336.876V160.771H337.876V170.979H336.876V181.187H337.876V191.396H336.876V201.604H337.876V211.812H336.876V222.021H337.876V232.229H336.876V242.438H337.876V252.646H336.876V262.854H337.876V273.062H336.876V283.271H337.876V293.479H336.876V303.688H337.876V313.896H336.876V319C336.876 320.738 336.819 322.463 336.709 324.173L337.707 324.237C337.479 327.763 337.023 331.226 336.353 334.613L335.372 334.419C334.697 337.831 333.802 341.164 332.703 344.403L333.65 344.725C332.521 348.05 331.18 351.278 329.642 354.391L328.745 353.948C327.212 357.05 325.482 360.037 323.57 362.893L324.401 363.449C322.455 366.356 320.324 369.128 318.024 371.748L317.272 371.088C314.998 373.68 312.556 376.122 309.964 378.397L310.624 379.148C308.003 381.448 305.231 383.579 302.325 385.525L301.769 384.694C298.913 386.606 295.926 388.337 292.823 389.869L293.266 390.766C290.153 392.304 286.926 393.646 283.6 394.774L283.279 393.827C280.04 394.926 276.707 395.821 273.294 396.496L273.489 397.477C270.102 398.147 266.639 398.603 263.113 398.831L263.048 397.833C261.339 397.944 259.614 398 257.876 398H253.153V399H243.709V398H234.264V399H224.82V398H215.376V399H205.931V398H196.487V399H187.042V398H177.598V399H168.153V398H158.709V399H149.265V398H139.82V399H130.376V398H120.931V399H111.487V398H102.042V399H92.5978V398H87.8756C86.6054 398 85.3653 397.875 84.1664 397.638L83.9724 398.619C81.3485 398.1 78.9091 397.068 76.7633 395.631L77.3196 394.8C75.2472 393.413 73.4627 391.628 72.0753 389.556L71.2443 390.112Z" stroke="#5A7FFF" stroke-width="2" stroke-dasharray="10 10"/>
<defs>
<linearGradient id="paint0_linear_322_45" x1="160.896" y1="385.714" x2="162.929" y2="172.837" gradientUnits="userSpaceOnUse">
<stop stop-color="#28FED7"/>
<stop offset="1" stop-color="#099BA3"/>
</linearGradient>
</defs>
</svg>
